# xmcd
#
# Track frame offsets: 
#        150
#        62325
#        74015
#        84483
#        95832
#        111242
#        121884
#        137350
#        173393
#        191655
#
# Disc length: 2816 seconds
#
# Revision: 3
# Processed by: cddbd v1.5.1PL0 Copyright (c) Steve Scherf et al.
# Submitted via: ExactAudioCopy v0.95a5
#
DISCID=830afe0a
DTITLE=Jobim - Vinícius - Toquinho - Miúcha - Ao vivo no Canecão
DYEAR=1998
DGENRE=MPB
TTITLE0=Abertura - Dia da criação - Tarde em Itapoã - Gente humilde
TTITLE1=Carta ao Tom - Carta do Tom
TTITLE2=Corcovado
TTITLE3=Wave
TTITLE4=Pela luz dos olhos teus
TTITLE5=Saia do caminho
TTITLE6=Samba pra Vinicius
TTITLE7=Água de beber
TTITLE8=Minha namorada
TTITLE9=Chega de saudade
EXTD=
EXTT0=
EXTT1=
EXTT2=
EXTT3=
EXTT4=
EXTT5=
EXTT6=
EXTT7=
EXTT8=
EXTT9=
PLAYORDER=
